<svg data-v-423bf9ae="" xmlns="http://www.w3.org/2000/svg" viewBox="0 0 414 100" class="iconLeft"><!----><defs data-v-423bf9ae=""><linearGradient data-v-423bf9ae="" gradientTransform="rotate(25)" id="b9bbc566-4e46-4467-b333-5b7a0f693a5f" x1="0%" y1="0%" x2="100%" y2="0%"><stop data-v-423bf9ae="" offset="0%" style="stop-color: rgb(142, 54, 222); stop-opacity: 1;"></stop><stop data-v-423bf9ae="" offset="100%" style="stop-color: rgb(247, 207, 245); stop-opacity: 1;"></stop></linearGradient></defs><!----><g data-v-423bf9ae="" id="1bd601f8-3384-4f69-bdbb-a5ebb0b4b509" fill="#ffffff" transform="matrix(4.784689009770447,0,0,4.784689009770447,120.65052972569805,9.349125175741413)"><path d="M0.94 3.54L0.94 2.17L2.17 2.17L2.17 3.54L0.94 3.54ZM0.94 12.29L0.94 4.93L2.17 4.93L2.17 12.29L0.94 12.29ZM4.05 14.71L4.05 4.93L4.97 4.93L5.12 5.92L5.21 5.92L5.21 5.92Q5.57 5.35 6.17 5.05L6.17 5.05L6.17 5.05Q6.76 4.76 7.49 4.76L7.49 4.76L7.49 4.76Q8.89 4.76 9.65 5.70L9.65 5.70L9.65 5.70Q10.40 6.64 10.40 8.61L10.40 8.61L10.40 8.61Q10.40 10.54 9.65 11.50L9.65 11.50L9.65 11.50Q8.90 12.46 7.60 12.46L7.60 12.46L7.60 12.46Q6.82 12.46 6.27 12.22L6.27 12.22L6.27 12.22Q5.73 11.98 5.36 11.45L5.36 11.45L5.28 11.45L5.28 14.71L4.05 14.71ZM7.18 11.44L7.18 11.44Q7.90 11.44 8.32 11.17L8.32 11.17L8.32 11.17Q8.74 10.91 8.93 10.30L8.93 10.30L8.93 10.30Q9.13 9.70 9.13 8.67L9.13 8.67L9.13 8.61L9.13 8.61Q9.13 7.56 8.93 6.94L8.93 6.94L8.93 6.94Q8.74 6.33 8.31 6.05L8.31 6.05L8.31 6.05Q7.88 5.78 7.18 5.78L7.18 5.78L7.18 5.78Q6.20 5.78 5.74 6.50L5.74 6.50L5.74 6.50Q5.28 7.21 5.28 8.61L5.28 8.61L5.28 8.67L5.28 8.67Q5.28 10.04 5.73 10.74L5.73 10.74L5.73 10.74Q6.19 11.44 7.18 11.44L7.18 11.44ZM11.83 12.29L11.83 4.93L12.77 4.93L12.91 5.92L13.01 5.92L13.01 5.92Q13.76 4.76 15.22 4.76L15.22 4.76L15.22 4.76Q16.65 4.76 17.12 5.92L17.12 5.92L17.21 5.92L17.21 5.92Q17.58 5.36 18.19 5.06L18.19 5.06L18.19 5.06Q18.80 4.76 19.49 4.76L19.49 4.76L19.49 4.76Q21.66 4.76 21.66 6.99L21.66 6.99L21.66 12.29L20.43 12.29L20.43 7.21L20.43 7.21Q20.43 6.41 20.08 6.10L20.08 6.10L20.08 6.10Q19.73 5.78 19.11 5.78L19.11 5.78L19.11 5.78Q18.37 5.78 17.86 6.37L17.86 6.37L17.86 6.37Q17.36 6.96 17.36 7.94L17.36 7.94L17.36 12.29L16.13 12.29L16.13 7.21L16.13 7.21Q16.13 6.41 15.79 6.10L15.79 6.10L15.79 6.10Q15.46 5.78 14.84 5.78L14.84 5.78L14.84 5.78Q14.36 5.78 13.96 6.04L13.96 6.04L13.96 6.04Q13.55 6.30 13.31 6.79L13.31 6.79L13.31 6.79Q13.06 7.28 13.06 7.94L13.06 7.94L13.06 12.29L11.83 12.29ZM23.83 12.29L23.83 10.78L25.23 10.78L25.23 12.29L23.83 12.29ZM27.38 14.71L27.38 4.93L28.31 4.93L28.46 5.92L28.55 5.92L28.55 5.92Q28.91 5.35 29.51 5.05L29.51 5.05L29.51 5.05Q30.10 4.76 30.83 4.76L30.83 4.76L30.83 4.76Q32.23 4.76 32.98 5.70L32.98 5.70L32.98 5.70Q33.74 6.64 33.74 8.61L33.74 8.61L33.74 8.61Q33.74 10.54 32.99 11.50L32.99 11.50L32.99 11.50Q32.24 12.46 30.94 12.46L30.94 12.46L30.94 12.46Q30.16 12.46 29.61 12.22L29.61 12.22L29.61 12.22Q29.06 11.98 28.70 11.45L28.70 11.45L28.62 11.45L28.62 14.71L27.38 14.71ZM30.52 11.44L30.52 11.44Q31.23 11.44 31.65 11.17L31.65 11.17L31.65 11.17Q32.07 10.91 32.27 10.30L32.27 10.30L32.27 10.30Q32.47 9.70 32.47 8.67L32.47 8.67L32.47 8.61L32.47 8.61Q32.47 7.56 32.27 6.94L32.27 6.94L32.27 6.94Q32.07 6.33 31.65 6.05L31.65 6.05L31.65 6.05Q31.22 5.78 30.52 5.78L30.52 5.78L30.52 5.78Q29.54 5.78 29.08 6.50L29.08 6.50L29.08 6.50Q28.62 7.21 28.62 8.61L28.62 8.61L28.62 8.67L28.62 8.67Q28.62 10.04 29.07 10.74L29.07 10.74L29.07 10.74Q29.53 11.44 30.52 11.44L30.52 11.44ZM38.12 12.46L38.12 12.46Q36.43 12.46 35.57 11.52L35.57 11.52L35.57 11.52Q34.72 10.57 34.72 8.61L34.72 8.61L34.72 8.61Q34.72 6.65 35.57 5.71L35.57 5.71L35.57 5.71Q36.43 4.76 38.12 4.76L38.12 4.76L38.12 4.76Q39.82 4.76 40.67 5.71L40.67 5.71L40.67 5.71Q41.52 6.65 41.52 8.61L41.52 8.61L41.52 8.61Q41.52 10.57 40.67 11.52L40.67 11.52L40.67 11.52Q39.82 12.46 38.12 12.46L38.12 12.46ZM38.12 11.44L38.12 11.44Q39.24 11.44 39.75 10.79L39.75 10.79L39.75 10.79Q40.25 10.14 40.25 8.67L40.25 8.67L40.25 8.55L40.25 8.55Q40.25 7.08 39.75 6.43L39.75 6.43L39.75 6.43Q39.24 5.78 38.12 5.78L38.12 5.78L38.12 5.78Q37.00 5.78 36.50 6.43L36.50 6.43L36.50 6.43Q35.99 7.08 35.99 8.55L35.99 8.55L35.99 8.67L35.99 8.67Q35.99 10.14 36.50 10.79L36.50 10.79L36.50 10.79Q37.00 11.44 38.12 11.44L38.12 11.44ZM42.95 12.29L42.95 2.17L44.18 2.17L44.18 8.54L47.31 4.93L48.83 4.93L46.30 7.83L48.97 12.29L47.54 12.29L45.53 8.71L44.18 9.98L44.18 12.29L42.95 12.29ZM53.07 12.46L53.07 12.46Q51.30 12.46 50.43 11.52L50.43 11.52L50.43 11.52Q49.56 10.58 49.56 8.61L49.56 8.61L49.56 8.61Q49.56 6.64 50.43 5.70L50.43 5.70L50.43 5.70Q51.30 4.76 53.07 4.76L53.07 4.76L53.07 4.76Q54.67 4.76 55.46 5.61L55.46 5.61L55.46 5.61Q56.25 6.45 56.25 8.33L56.25 8.33L56.25 8.95L50.83 8.95L50.83 8.95Q50.90 10.22 51.44 10.83L51.44 10.83L51.44 10.83Q51.98 11.44 53.07 11.44L53.07 11.44L53.07 11.44Q53.96 11.44 54.50 11.03L54.50 11.03L54.50 11.03Q55.05 10.63 55.05 9.79L55.05 9.79L56.25 9.79L56.25 9.79Q56.25 11.07 55.36 11.77L55.36 11.77L55.36 11.77Q54.47 12.46 53.07 12.46L53.07 12.46ZM50.86 7.92L54.96 7.92L54.96 7.92Q54.96 5.78 53.07 5.78L53.07 5.78L53.07 5.78Q52.02 5.78 51.50 6.29L51.50 6.29L51.50 6.29Q50.97 6.79 50.86 7.92L50.86 7.92ZM57.74 12.29L57.74 4.93L58.67 4.93L58.81 6.03L58.90 6.03L58.90 6.03Q59.11 5.49 59.53 5.12L59.53 5.12L59.53 5.12Q59.95 4.76 60.63 4.76L60.63 4.76L60.63 4.76Q60.87 4.76 61.06 4.81L61.06 4.81L61.06 4.81Q61.25 4.86 61.29 4.87L61.29 4.87L61.29 6.06L60.77 6.06L60.77 6.06Q59.99 6.06 59.48 6.52L59.48 6.52L59.48 6.52Q58.97 6.97 58.97 7.94L58.97 7.94L58.97 12.29L57.74 12.29Z"></path></g><!----><g data-v-423bf9ae="" id="b3a7a953-86b9-48ac-b05c-4109264696b4" transform="matrix(1.0512627495659723,0,0,1.0512627495659723,0.425955294345016,-1.870021487631476)" stroke="none" fill="#ffffff"><path d="M100 94.476l-.001-72.548a2.5 2.5 0 0 0-2.5-2.5H85.222L83.66 12.16a2.506 2.506 0 0 0-2.964-1.92L68.65 12.801l-3.03-6.804a2.5 2.5 0 0 0-3.301-1.267L51.08 9.734l-4.355-6.007a2.503 2.503 0 0 0-1.631-1.002 2.505 2.505 0 0 0-1.862.447L1.03 33.834a2.5 2.5 0 0 0-.553 3.492l42.829 58.95c.021.028.049.048.07.075.044.056.09.108.139.159.012.013.025.023.037.035.013.014.026.025.039.037.062.061.119.123.185.176.038.029.08.052.119.08.048.033.094.066.144.097.037.022.073.047.111.068.063.034.129.06.195.088.083.036.166.069.252.097l.049.013.006.002c.058.016.113.033.172.045.167.035.337.06.512.06.016 0 .033-.005.049-.005.037-.001.074-.007.11-.009H97.5a2.5 2.5 0 0 0 2.5-2.818zM80.107 19.427H61.523l17.772-3.778.812 3.778zm-52.062 6.036l9.92 46.674-18.984-42.638 9.064-4.036zm14.789 45.528l-9.678-45.534 9.678-2.057v47.591zm20.815-57.127l-18.277 3.885 16.697-7.434 1.58 3.549zM44.146 8.688l2.265 3.125-16.956 7.55L44.146 8.688zm-30.15 21.906l19.357 43.475L5.992 36.41l8.004-5.816zm33.838 61.699V24.427l47.165.001L95 92.293H47.834z"></path><circle cx="53.089" cy="29.962" r="2.5"></circle><circle cx="90.098" cy="86.72" r="2.5"></circle><path d="M80.495 52.648a9.39 9.39 0 0 0 .456-2.833c0-5.223-4.249-9.472-9.472-9.472-5.222 0-9.471 4.249-9.471 9.472a9.4 9.4 0 0 0 .456 2.833c-4.242.938-7.428 4.723-7.428 9.244 0 5.222 4.249 9.471 9.472 9.471a9.396 9.396 0 0 0 4.045-.921c-.211.966-.465 1.66-.673 2.013a2.5 2.5 0 0 0 .74 4.889c.096 0 .183-.019.275-.025.085.009.167.025.254.025h4.626c.093 0 .18-.018.27-.027.098.008.19.027.292.027a2.5 2.5 0 0 0 .739-4.889c-.209-.353-.462-1.048-.674-2.013a9.406 9.406 0 0 0 4.048.921c5.222 0 9.471-4.249 9.471-9.471.001-4.521-3.185-8.306-7.426-9.244zm-2.044 13.715a4.478 4.478 0 0 1-4.473-4.471 2.5 2.5 0 1 0-5 0 4.476 4.476 0 0 1-4.47 4.471 4.477 4.477 0 0 1-4.472-4.471 4.478 4.478 0 0 1 6.698-3.881 2.498 2.498 0 0 0 3.412-.924 2.498 2.498 0 0 0-.924-3.412l-.017-.008-.009-.007a4.437 4.437 0 0 1-2.188-3.845 4.477 4.477 0 0 1 4.471-4.472 4.477 4.477 0 0 1 4.472 4.472c0 1.581-.85 3.06-2.216 3.862l-.021.016c-.017.01-.034.016-.051.025a2.499 2.499 0 1 0 2.529 4.313 4.483 4.483 0 0 1 2.259-.611 4.478 4.478 0 0 1 4.471 4.473 4.476 4.476 0 0 1-4.471 4.47z"></path><circle cx="39.278" cy="29.833" r="2.499"></circle><circle cx="26.035" cy="32.417" r="2.499"></circle><circle cx="13.365" cy="37.918" r="2.5"></circle></g><!----></svg>